<svg width="11" height="14" viewBox="0 0 11 14" fill="none" xmlns="http://www.w3.org/2000/svg">
<path d="M1.59293 14C1.1454 14 0.768159 13.8427 0.461218 13.5281C0.153739 13.2135 0 12.8276 0 12.3702V1.62976C0 1.17243 0.153739 0.786471 0.461218 0.471882C0.768159 0.157294 1.1454 0 1.59293 0H6.82489L11 4.27247V12.3702C11 12.8276 10.8463 13.2135 10.5388 13.5281C10.2318 13.8427 9.8546 14 9.40707 14H1.59293ZM6.01998 5.096H9.40707L6.01998 1.62976V5.096ZM2.81721 8.45847H8.18279V6.94894H2.81721V8.45847ZM2.81721 11.1687H8.18279V9.65918H2.81721V11.1687Z" fill="#434343"/>
</svg>
