<svg width="13" height="10" viewBox="0 0 13 10" fill="none" xmlns="http://www.w3.org/2000/svg">
<path d="M1.51335 10C1.08869 10 0.730294 9.86024 0.438176 9.58071C0.146059 9.30167 0 8.95873 0 8.55188V1.44812C0 1.04127 0.146059 0.698327 0.438176 0.419289C0.730294 0.139763 1.08869 0 1.51335 0H11.4866C11.9113 0 12.2697 0.139763 12.5618 0.419289C12.8539 0.698327 13 1.04127 13 1.44812V8.55188C13 8.95873 12.8539 9.30167 12.5618 9.58071C12.2697 9.86024 11.9113 10 11.4866 10H1.51335ZM6.5 5.83858L11.4866 2.8355V1.44812L6.5 4.46656L1.51335 1.44812V2.8355L6.5 5.83858Z" fill="#434343"/>
</svg>
